<?xml version="1.0" encoding="utf-8" standalone="no"?>
<!DOCTYPE svg PUBLIC "-//W3C//DTD SVG 1.1//EN"
  "http://www.w3.org/Graphics/SVG/1.1/DTD/svg11.dtd">
<svg xmlns:xlink="http://www.w3.org/1999/xlink" width="856.34375pt" height="320.31625pt" viewBox="0 0 856.34375 320.31625" xmlns="http://www.w3.org/2000/svg" version="1.1">
 <metadata>
  <rdf:RDF xmlns:dc="http://purl.org/dc/elements/1.1/" xmlns:cc="http://creativecommons.org/ns#" xmlns:rdf="http://www.w3.org/1999/02/22-rdf-syntax-ns#">
   <cc:Work>
    <dc:type rdf:resource="http://purl.org/dc/dcmitype/StillImage"/>
    <dc:date>2026-09-23T13:35:19.615822</dc:date>
    <dc:format>image/svg+xml</dc:format>
    <dc:creator>
     <cc:Agent>
      <dc:title>Matplotlib v3.10.8, https://matplotlib.org/</dc:title>
     </cc:Agent>
    </dc:creator>
   </cc:Work>
  </rdf:RDF>
 </metadata>
 <defs>
  <style type="text/css">*{stroke-linejoin: round; stroke-linecap: butt}</style>
 </defs>
 <g id="figure_1">
  <g id="patch_1">
   <path d="M 0 320.31625 
L 856.34375 320.31625 
L 856.34375 0 
L 0 0 
z
" style="fill: #ffffff"/>
  </g>
  <g id="axes_1">
   <g id="patch_2">
    <path d="M 50.14375 282.76 
L 422.54375 282.76 
L 422.54375 48.5925 
L 50.14375 48.5925 
z
" style="fill: #ffffff"/>
   </g>
   <g id="PathCollection_1">
    <defs>
     <path id="mca58fec6b2" d="M -3 3 
L 3 -3 
M -3 -3 
L 3 3 
" style="stroke: #af482a; stroke-width: 1.5"/>
    </defs>
    <g clip-path="url(#p2df70d11b1)">
     <use xlink:href="#mca58fec6b2" x="134.001419" y="88.196566" style="fill: #af482a; stroke: #af482a; stroke-width: 1.5"/>
     <use xlink:href="#mca58fec6b2" x="134.001419" y="86.131198" style="fill: #af482a; stroke: #af482a; stroke-width: 1.5"/>
     <use xlink:href="#mca58fec6b2" x="134.001419" y="83.313738" style="fill: #af482a; stroke: #af482a; stroke-width: 1.5"/>
     <use xlink:href="#mca58fec6b2" x="200.931815" y="86.246667" style="fill: #af482a; stroke: #af482a; stroke-width: 1.5"/>
     <use xlink:href="#mca58fec6b2" x="200.931815" y="87.880762" style="fill: #af482a; stroke: #af482a; stroke-width: 1.5"/>
     <use xlink:href="#mca58fec6b2" x="200.931815" y="84.179889" style="fill: #af482a; stroke: #af482a; stroke-width: 1.5"/>
     <use xlink:href="#mca58fec6b2" x="267.862211" y="81.983964" style="fill: #af482a; stroke: #af482a; stroke-width: 1.5"/>
     <use xlink:href="#mca58fec6b2" x="267.862211" y="86.363087" style="fill: #af482a; stroke: #af482a; stroke-width: 1.5"/>
     <use xlink:href="#mca58fec6b2" x="267.862211" y="79.908894" style="fill: #af482a; stroke: #af482a; stroke-width: 1.5"/>
     <use xlink:href="#mca58fec6b2" x="334.792607" y="81.257112" style="fill: #af482a; stroke: #af482a; stroke-width: 1.5"/>
     <use xlink:href="#mca58fec6b2" x="334.792607" y="93.055462" style="fill: #af482a; stroke: #af482a; stroke-width: 1.5"/>
     <use xlink:href="#mca58fec6b2" x="334.792607" y="85.517595" style="fill: #af482a; stroke: #af482a; stroke-width: 1.5"/>
    </g>
   </g>
   <g id="matplotlib.axis_1">
    <g id="xtick_1">
     <g id="line2d_1">
      <path d="M 67.071023 282.76 
L 67.071023 48.5925 
" clip-path="url(#p2df70d11b1)" style="fill: none; stroke: #b0b0b0; stroke-opacity: 0.2; stroke-width: 0.8; stroke-linecap: square"/>
     </g>
     <g id="line2d_2">
      <defs>
       <path id="md14c37acc5" d="M 0 0 
L 0 3.5 
" style="stroke: #000000; stroke-width: 0.8"/>
      </defs>
      <g>
       <use xlink:href="#md14c37acc5" x="67.071023" y="282.76" style="stroke: #000000; stroke-width: 0.8"/>
      </g>
     </g>
     <g id="text_1">
      <!-- 1 -->
      <g transform="translate(63.889773 297.358437) scale(0.1 -0.1)">
       <defs>
        <path id="DejaVuSans-31" d="M 794 531 
L 1825 531 
L 1825 4091 
L 703 3866 
L 703 4441 
L 1819 4666 
L 2450 4666 
L 2450 531 
L 3481 531 
L 3481 0 
L 794 0 
L 794 531 
z
" transform="scale(0.015625)"/>
       </defs>
       <use xlink:href="#DejaVuSans-31"/>
      </g>
     </g>
    </g>
    <g id="xtick_2">
     <g id="line2d_3">
      <path d="M 134.001419 282.76 
L 134.001419 48.5925 
" clip-path="url(#p2df70d11b1)" style="fill: none; stroke: #b0b0b0; stroke-opacity: 0.2; stroke-width: 0.8; stroke-linecap: square"/>
     </g>
     <g id="line2d_4">
      <g>
       <use xlink:href="#md14c37acc5" x="134.001419" y="282.76" style="stroke: #000000; stroke-width: 0.8"/>
      </g>
     </g>
     <g id="text_2">
      <!-- 4 -->
      <g transform="translate(130.820169 297.358437) scale(0.1 -0.1)">
       <defs>
        <path id="DejaVuSans-34" d="M 2419 4116 
L 825 1625 
L 2419 1625 
L 2419 4116 
z
M 2253 4666 
L 3047 4666 
L 3047 1625 
L 3713 1625 
L 3713 1100 
L 3047 1100 
L 3047 0 
L 2419 0 
L 2419 1100 
L 313 1100 
L 313 1709 
L 2253 4666 
z
" transform="scale(0.015625)"/>
       </defs>
       <use xlink:href="#DejaVuSans-34"/>
      </g>
     </g>
    </g>
    <g id="xtick_3">
     <g id="line2d_5">
      <path d="M 200.931815 282.76 
L 200.931815 48.5925 
" clip-path="url(#p2df70d11b1)" style="fill: none; stroke: #b0b0b0; stroke-opacity: 0.2; stroke-width: 0.8; stroke-linecap: square"/>
     </g>
     <g id="line2d_6">
      <g>
       <use xlink:href="#md14c37acc5" x="200.931815" y="282.76" style="stroke: #000000; stroke-width: 0.8"/>
      </g>
     </g>
     <g id="text_3">
      <!-- 16 -->
      <g transform="translate(194.569315 297.358437) scale(0.1 -0.1)">
       <defs>
        <path id="DejaVuSans-36" d="M 2113 2584 
Q 1688 2584 1439 2293 
Q 1191 2003 1191 1497 
Q 1191 994 1439 701 
Q 1688 409 2113 409 
Q 2538 409 2786 701 
Q 3034 994 3034 1497 
Q 3034 2003 2786 2293 
Q 2538 2584 2113 2584 
z
M 3366 4563 
L 3366 3988 
Q 3128 4100 2886 4159 
Q 2644 4219 2406 4219 
Q 1781 4219 1451 3797 
Q 1122 3375 1075 2522 
Q 1259 2794 1537 2939 
Q 1816 3084 2150 3084 
Q 2853 3084 3261 2657 
Q 3669 2231 3669 1497 
Q 3669 778 3244 343 
Q 2819 -91 2113 -91 
Q 1303 -91 875 529 
Q 447 1150 447 2328 
Q 447 3434 972 4092 
Q 1497 4750 2381 4750 
Q 2619 4750 2861 4703 
Q 3103 4656 3366 4563 
z
" transform="scale(0.015625)"/>
       </defs>
       <use xlink:href="#DejaVuSans-31"/>
       <use xlink:href="#DejaVuSans-36" transform="translate(63.623047 0)"/>
      </g>
     </g>
    </g>
    <g id="xtick_4">
     <g id="line2d_7">
      <path d="M 267.862211 282.76 
L 267.862211 48.5925 
" clip-path="url(#p2df70d11b1)" style="fill: none; stroke: #b0b0b0; stroke-opacity: 0.2; stroke-width: 0.8; stroke-linecap: square"/>
     </g>
     <g id="line2d_8">
      <g>
       <use xlink:href="#md14c37acc5" x="267.862211" y="282.76" style="stroke: #000000; stroke-width: 0.8"/>
      </g>
     </g>
     <g id="text_4">
      <!-- 64 -->
      <g transform="translate(261.499711 297.358437) scale(0.1 -0.1)">
       <use xlink:href="#DejaVuSans-36"/>
       <use xlink:href="#DejaVuSans-34" transform="translate(63.623047 0)"/>
      </g>
     </g>
    </g>
    <g id="xtick_5">
     <g id="line2d_9">
      <path d="M 334.792607 282.76 
L 334.792607 48.5925 
" clip-path="url(#p2df70d11b1)" style="fill: none; stroke: #b0b0b0; stroke-opacity: 0.2; stroke-width: 0.8; stroke-linecap: square"/>
     </g>
     <g id="line2d_10">
      <g>
       <use xlink:href="#md14c37acc5" x="334.792607" y="282.76" style="stroke: #000000; stroke-width: 0.8"/>
      </g>
     </g>
     <g id="text_5">
      <!-- 256 -->
      <g transform="translate(325.248857 297.358437) scale(0.1 -0.1)">
       <defs>
        <path id="DejaVuSans-32" d="M 1228 531 
L 3431 531 
L 3431 0 
L 469 0 
L 469 531 
Q 828 903 1448 1529 
Q 2069 2156 2228 2338 
Q 2531 2678 2651 2914 
Q 2772 3150 2772 3378 
Q 2772 3750 2511 3984 
Q 2250 4219 1831 4219 
Q 1534 4219 1204 4116 
Q 875 4013 500 3803 
L 500 4441 
Q 881 4594 1212 4672 
Q 1544 4750 1819 4750 
Q 2544 4750 2975 4387 
Q 3406 4025 3406 3419 
Q 3406 3131 3298 2873 
Q 3191 2616 2906 2266 
Q 2828 2175 2409 1742 
Q 1991 1309 1228 531 
z
" transform="scale(0.015625)"/>
        <path id="DejaVuSans-35" d="M 691 4666 
L 3169 4666 
L 3169 4134 
L 1269 4134 
L 1269 2991 
Q 1406 3038 1543 3061 
Q 1681 3084 1819 3084 
Q 2600 3084 3056 2656 
Q 3513 2228 3513 1497 
Q 3513 744 3044 326 
Q 2575 -91 1722 -91 
Q 1428 -91 1123 -41 
Q 819 9 494 109 
L 494 744 
Q 775 591 1075 516 
Q 1375 441 1709 441 
Q 2250 441 2565 725 
Q 2881 1009 2881 1497 
Q 2881 1984 2565 2268 
Q 2250 2553 1709 2553 
Q 1456 2553 1204 2497 
Q 953 2441 691 2322 
L 691 4666 
z
" transform="scale(0.015625)"/>
       </defs>
       <use xlink:href="#DejaVuSans-32"/>
       <use xlink:href="#DejaVuSans-35" transform="translate(63.623047 0)"/>
       <use xlink:href="#DejaVuSans-36" transform="translate(127.246094 0)"/>
      </g>
     </g>
    </g>
    <g id="xtick_6">
     <g id="line2d_11">
      <path d="M 405.616477 282.76 
L 405.616477 48.5925 
" clip-path="url(#p2df70d11b1)" style="fill: none; stroke: #b0b0b0; stroke-opacity: 0.2; stroke-width: 0.8; stroke-linecap: square"/>
     </g>
     <g id="line2d_12">
      <g>
       <use xlink:href="#md14c37acc5" x="405.616477" y="282.76" style="stroke: #000000; stroke-width: 0.8"/>
      </g>
     </g>
     <g id="text_6">
      <!-- 1110 -->
      <g transform="translate(392.891477 297.358437) scale(0.1 -0.1)">
       <defs>
        <path id="DejaVuSans-30" d="M 2034 4250 
Q 1547 4250 1301 3770 
Q 1056 3291 1056 2328 
Q 1056 1369 1301 889 
Q 1547 409 2034 409 
Q 2525 409 2770 889 
Q 3016 1369 3016 2328 
Q 3016 3291 2770 3770 
Q 2525 4250 2034 4250 
z
M 2034 4750 
Q 2819 4750 3233 4129 
Q 3647 3509 3647 2328 
Q 3647 1150 3233 529 
Q 2819 -91 2034 -91 
Q 1250 -91 836 529 
Q 422 1150 422 2328 
Q 422 3509 836 4129 
Q 1250 4750 2034 4750 
z
" transform="scale(0.015625)"/>
       </defs>
       <use xlink:href="#DejaVuSans-31"/>
       <use xlink:href="#DejaVuSans-31" transform="translate(63.623047 0)"/>
       <use xlink:href="#DejaVuSans-31" transform="translate(127.246094 0)"/>
       <use xlink:href="#DejaVuSans-30" transform="translate(190.869141 0)"/>
      </g>
     </g>
    </g>
    <g id="text_7">
     <!-- Число запросов в пакете (галерея 750) -->
     <g transform="translate(132.702344 311.036562) scale(0.1 -0.1)">
      <defs>
       <path id="DejaVuSans-427" d="M 3125 0 
L 3125 1913 
L 1822 1913 
Q 1241 1913 894 2277 
Q 547 2641 547 3384 
L 547 4666 
L 1175 4666 
L 1175 3434 
Q 1175 2938 1369 2691 
Q 1563 2444 1950 2444 
L 3125 2444 
L 3125 4666 
L 3759 4666 
L 3759 0 
L 3125 0 
z
" transform="scale(0.015625)"/>
       <path id="DejaVuSans-438" d="M 3578 3500 
L 3578 0 
L 3006 0 
L 3006 2809 
L 1319 0 
L 581 0 
L 581 3500 
L 1153 3500 
L 1153 697 
L 2838 3500 
L 3578 3500 
z
" transform="scale(0.015625)"/>
       <path id="DejaVuSans-441" d="M 3122 3366 
L 3122 2828 
Q 2878 2963 2633 3030 
Q 2388 3097 2138 3097 
Q 1578 3097 1268 2742 
Q 959 2388 959 1747 
Q 959 1106 1268 751 
Q 1578 397 2138 397 
Q 2388 397 2633 464 
Q 2878 531 3122 666 
L 3122 134 
Q 2881 22 2623 -34 
Q 2366 -91 2075 -91 
Q 1284 -91 818 406 
Q 353 903 353 1747 
Q 353 2603 823 3093 
Q 1294 3584 2113 3584 
Q 2378 3584 2631 3529 
Q 2884 3475 3122 3366 
z
" transform="scale(0.015625)"/>
       <path id="DejaVuSans-43b" d="M 238 0 
L 238 478 
Q 806 566 981 959 
Q 1194 1513 1194 2928 
L 1194 3500 
L 3559 3500 
L 3559 0 
L 2984 0 
L 2984 3041 
L 1769 3041 
L 1769 2694 
Q 1769 1344 1494 738 
Q 1200 91 238 0 
z
" transform="scale(0.015625)"/>
       <path id="DejaVuSans-43e" d="M 1959 3097 
Q 1497 3097 1228 2736 
Q 959 2375 959 1747 
Q 959 1119 1226 758 
Q 1494 397 1959 397 
Q 2419 397 2687 759 
Q 2956 1122 2956 1747 
Q 2956 2369 2687 2733 
Q 2419 3097 1959 3097 
z
M 1959 3584 
Q 2709 3584 3137 3096 
Q 3566 2609 3566 1747 
Q 3566 888 3137 398 
Q 2709 -91 1959 -91 
Q 1206 -91 779 398 
Q 353 888 353 1747 
Q 353 2609 779 3096 
Q 1206 3584 1959 3584 
z
" transform="scale(0.015625)"/>
       <path id="DejaVuSans-20" transform="scale(0.015625)"/>
       <path id="DejaVuSans-437" d="M 2206 1888 
Q 2594 1813 2809 1584 
Q 3025 1356 3025 1019 
Q 3025 478 2622 193 
Q 2219 -91 1475 -91 
Q 1225 -91 961 -47 
Q 697 -3 416 84 
L 416 619 
Q 638 503 903 445 
Q 1169 388 1459 388 
Q 1931 388 2195 563 
Q 2459 738 2459 1019 
Q 2459 1294 2225 1461 
Q 1991 1628 1563 1628 
L 1100 1628 
L 1100 2103 
L 1584 2103 
Q 1947 2103 2158 2242 
Q 2369 2381 2369 2600 
Q 2369 2800 2151 2944 
Q 1934 3088 1563 3088 
Q 1341 3088 1089 3047 
Q 838 3006 534 2916 
L 534 3438 
Q 841 3513 1106 3550 
Q 1372 3588 1609 3588 
Q 2222 3588 2576 3342 
Q 2931 3097 2931 2656 
Q 2931 2366 2743 2164 
Q 2556 1963 2206 1888 
z
" transform="scale(0.015625)"/>
       <path id="DejaVuSans-430" d="M 2194 1759 
Q 1497 1759 1228 1600 
Q 959 1441 959 1056 
Q 959 750 1161 570 
Q 1363 391 1709 391 
Q 2188 391 2477 730 
Q 2766 1069 2766 1631 
L 2766 1759 
L 2194 1759 
z
M 3341 1997 
L 3341 0 
L 2766 0 
L 2766 531 
Q 2569 213 2275 61 
Q 1981 -91 1556 -91 
Q 1019 -91 701 211 
Q 384 513 384 1019 
Q 384 1609 779 1909 
Q 1175 2209 1959 2209 
L 2766 2209 
L 2766 2266 
Q 2766 2663 2505 2880 
Q 2244 3097 1772 3097 
Q 1472 3097 1187 3025 
Q 903 2953 641 2809 
L 641 3341 
Q 956 3463 1253 3523 
Q 1550 3584 1831 3584 
Q 2591 3584 2966 3190 
Q 3341 2797 3341 1997 
z
" transform="scale(0.015625)"/>
       <path id="DejaVuSans-43f" d="M 3603 3500 
L 3603 0 
L 3025 0 
L 3025 3041 
L 1159 3041 
L 1159 0 
L 581 0 
L 581 3500 
L 3603 3500 
z
" transform="scale(0.015625)"/>
       <path id="DejaVuSans-440" d="M 1159 525 
L 1159 -1331 
L 581 -1331 
L 581 3500 
L 1159 3500 
L 1159 2969 
Q 1341 3281 1617 3432 
Q 1894 3584 2278 3584 
Q 2916 3584 3314 3078 
Q 3713 2572 3713 1747 
Q 3713 922 3314 415 
Q 2916 -91 2278 -91 
Q 1894 -91 1617 61 
Q 1341 213 1159 525 
z
M 3116 1747 
Q 3116 2381 2855 2742 
Q 2594 3103 2138 3103 
Q 1681 3103 1420 2742 
Q 1159 2381 1159 1747 
Q 1159 1113 1420 752 
Q 1681 391 2138 391 
Q 2594 391 2855 752 
Q 3116 1113 3116 1747 
z
" transform="scale(0.015625)"/>
       <path id="DejaVuSans-432" d="M 1156 1613 
L 1156 459 
L 1975 459 
Q 2369 459 2575 607 
Q 2781 756 2781 1038 
Q 2781 1319 2575 1466 
Q 2369 1613 1975 1613 
L 1156 1613 
z
M 1156 3041 
L 1156 2072 
L 1913 2072 
Q 2238 2072 2444 2201 
Q 2650 2331 2650 2563 
Q 2650 2794 2444 2917 
Q 2238 3041 1913 3041 
L 1156 3041 
z
M 581 3500 
L 1950 3500 
Q 2566 3500 2897 3275 
Q 3228 3050 3228 2634 
Q 3228 2313 3059 2123 
Q 2891 1934 2559 1888 
Q 2956 1813 3175 1575 
Q 3394 1338 3394 981 
Q 3394 513 3033 256 
Q 2672 0 2003 0 
L 581 0 
L 581 3500 
z
" transform="scale(0.015625)"/>
       <path id="DejaVuSans-43a" d="M 581 3500 
L 1153 3500 
L 1153 1856 
L 2775 3500 
L 3481 3500 
L 2144 2147 
L 3653 0 
L 3009 0 
L 1769 1766 
L 1153 1141 
L 1153 0 
L 581 0 
L 581 3500 
z
" transform="scale(0.015625)"/>
       <path id="DejaVuSans-435" d="M 3597 1894 
L 3597 1613 
L 953 1613 
Q 991 1019 1311 708 
Q 1631 397 2203 397 
Q 2534 397 2845 478 
Q 3156 559 3463 722 
L 3463 178 
Q 3153 47 2828 -22 
Q 2503 -91 2169 -91 
Q 1331 -91 842 396 
Q 353 884 353 1716 
Q 353 2575 817 3079 
Q 1281 3584 2069 3584 
Q 2775 3584 3186 3129 
Q 3597 2675 3597 1894 
z
M 3022 2063 
Q 3016 2534 2758 2815 
Q 2500 3097 2075 3097 
Q 1594 3097 1305 2825 
Q 1016 2553 972 2059 
L 3022 2063 
z
" transform="scale(0.015625)"/>
       <path id="DejaVuSans-442" d="M 188 3500 
L 3541 3500 
L 3541 3041 
L 2147 3041 
L 2147 0 
L 1581 0 
L 1581 3041 
L 188 3041 
L 188 3500 
z
" transform="scale(0.015625)"/>
       <path id="DejaVuSans-28" d="M 1984 4856 
Q 1566 4138 1362 3434 
Q 1159 2731 1159 2009 
Q 1159 1288 1364 580 
Q 1569 -128 1984 -844 
L 1484 -844 
Q 1016 -109 783 600 
Q 550 1309 550 2009 
Q 550 2706 781 3412 
Q 1013 4119 1484 4856 
L 1984 4856 
z
" transform="scale(0.015625)"/>
       <path id="DejaVuSans-433" d="M 581 0 
L 581 3500 
L 3050 3500 
L 3050 3041 
L 1159 3041 
L 1159 0 
L 581 0 
z
" transform="scale(0.015625)"/>
       <path id="DejaVuSans-44f" d="M 1181 2491 
Q 1181 2231 1381 2084 
Q 1581 1938 1953 1938 
L 2728 1938 
L 2728 3041 
L 1953 3041 
Q 1581 3041 1381 2897 
Q 1181 2753 1181 2491 
z
M 363 0 
L 1431 1534 
Q 1069 1616 828 1830 
Q 588 2044 588 2491 
Q 588 2997 923 3248 
Q 1259 3500 1938 3500 
L 3306 3500 
L 3306 0 
L 2728 0 
L 2728 1478 
L 2013 1478 
L 981 0 
L 363 0 
z
" transform="scale(0.015625)"/>
       <path id="DejaVuSans-37" d="M 525 4666 
L 3525 4666 
L 3525 4397 
L 1831 0 
L 1172 0 
L 2766 4134 
L 525 4134 
L 525 4666 
z
" transform="scale(0.015625)"/>
       <path id="DejaVuSans-29" d="M 513 4856 
L 1013 4856 
Q 1481 4119 1714 3412 
Q 1947 2706 1947 2009 
Q 1947 1309 1714 600 
Q 1481 -109 1013 -844 
L 513 -844 
Q 928 -128 1133 580 
Q 1338 1288 1338 2009 
Q 1338 2731 1133 3434 
Q 928 4138 513 4856 
z
" transform="scale(0.015625)"/>
      </defs>
      <use xlink:href="#DejaVuSans-427"/>
      <use xlink:href="#DejaVuSans-438" transform="translate(68.554688 0)"/>
      <use xlink:href="#DejaVuSans-441" transform="translate(133.544922 0)"/>
      <use xlink:href="#DejaVuSans-43b" transform="translate(188.525391 0)"/>
      <use xlink:href="#DejaVuSans-43e" transform="translate(252.441406 0)"/>
      <use xlink:href="#DejaVuSans-20" transform="translate(313.623047 0)"/>
      <use xlink:href="#DejaVuSans-437" transform="translate(345.410156 0)"/>
      <use xlink:href="#DejaVuSans-430" transform="translate(398.583984 0)"/>
      <use xlink:href="#DejaVuSans-43f" transform="translate(459.863281 0)"/>
      <use xlink:href="#DejaVuSans-440" transform="translate(525.244141 0)"/>
      <use xlink:href="#DejaVuSans-43e" transform="translate(588.720703 0)"/>
      <use xlink:href="#DejaVuSans-441" transform="translate(649.902344 0)"/>
      <use xlink:href="#DejaVuSans-43e" transform="translate(704.882812 0)"/>
      <use xlink:href="#DejaVuSans-432" transform="translate(766.064453 0)"/>
      <use xlink:href="#DejaVuSans-20" transform="translate(825 0)"/>
      <use xlink:href="#DejaVuSans-432" transform="translate(856.787109 0)"/>
      <use xlink:href="#DejaVuSans-20" transform="translate(915.722656 0)"/>
      <use xlink:href="#DejaVuSans-43f" transform="translate(947.509766 0)"/>
      <use xlink:href="#DejaVuSans-430" transform="translate(1012.890625 0)"/>
      <use xlink:href="#DejaVuSans-43a" transform="translate(1074.169922 0)"/>
      <use xlink:href="#DejaVuSans-435" transform="translate(1134.570312 0)"/>
      <use xlink:href="#DejaVuSans-442" transform="translate(1196.09375 0)"/>
      <use xlink:href="#DejaVuSans-435" transform="translate(1254.345703 0)"/>
      <use xlink:href="#DejaVuSans-20" transform="translate(1315.869141 0)"/>
      <use xlink:href="#DejaVuSans-28" transform="translate(1347.65625 0)"/>
      <use xlink:href="#DejaVuSans-433" transform="translate(1386.669922 0)"/>
      <use xlink:href="#DejaVuSans-430" transform="translate(1439.208984 0)"/>
      <use xlink:href="#DejaVuSans-43b" transform="translate(1500.488281 0)"/>
      <use xlink:href="#DejaVuSans-435" transform="translate(1564.404297 0)"/>
      <use xlink:href="#DejaVuSans-440" transform="translate(1625.927734 0)"/>
      <use xlink:href="#DejaVuSans-435" transform="translate(1689.404297 0)"/>
      <use xlink:href="#DejaVuSans-44f" transform="translate(1750.927734 0)"/>
      <use xlink:href="#DejaVuSans-20" transform="translate(1811.083984 0)"/>
      <use xlink:href="#DejaVuSans-37" transform="translate(1842.871094 0)"/>
      <use xlink:href="#DejaVuSans-35" transform="translate(1906.494141 0)"/>
      <use xlink:href="#DejaVuSans-30" transform="translate(1970.117188 0)"/>
      <use xlink:href="#DejaVuSans-29" transform="translate(2033.740234 0)"/>
     </g>
    </g>
   </g>
   <g id="matplotlib.axis_2">
    <g id="ytick_1">
     <g id="line2d_13">
      <path d="M 50.14375 244.331533 
L 422.54375 244.331533 
" clip-path="url(#p2df70d11b1)" style="fill: none; stroke: #b0b0b0; stroke-opacity: 0.2; stroke-width: 0.8; stroke-linecap: square"/>
     </g>
     <g id="line2d_14">
      <defs>
       <path id="m0641d0677f" d="M 0 0 
L -3.5 0 
" style="stroke: #000000; stroke-width: 0.8"/>
      </defs>
      <g>
       <use xlink:href="#m0641d0677f" x="50.14375" y="244.331533" style="stroke: #000000; stroke-width: 0.8"/>
      </g>
     </g>
     <g id="text_8">
      <!-- 0.78 -->
      <g transform="translate(20.878125 248.130752) scale(0.1 -0.1)">
       <defs>
        <path id="DejaVuSans-2e" d="M 684 794 
L 1344 794 
L 1344 0 
L 684 0 
L 684 794 
z
" transform="scale(0.015625)"/>
        <path id="DejaVuSans-38" d="M 2034 2216 
Q 1584 2216 1326 1975 
Q 1069 1734 1069 1313 
Q 1069 891 1326 650 
Q 1584 409 2034 409 
Q 2484 409 2743 651 
Q 3003 894 3003 1313 
Q 3003 1734 2745 1975 
Q 2488 2216 2034 2216 
z
M 1403 2484 
Q 997 2584 770 2862 
Q 544 3141 544 3541 
Q 544 4100 942 4425 
Q 1341 4750 2034 4750 
Q 2731 4750 3128 4425 
Q 3525 4100 3525 3541 
Q 3525 3141 3298 2862 
Q 3072 2584 2669 2484 
Q 3125 2378 3379 2068 
Q 3634 1759 3634 1313 
Q 3634 634 3220 271 
Q 2806 -91 2034 -91 
Q 1263 -91 848 271 
Q 434 634 434 1313 
Q 434 1759 690 2068 
Q 947 2378 1403 2484 
z
M 1172 3481 
Q 1172 3119 1398 2916 
Q 1625 2713 2034 2713 
Q 2441 2713 2670 2916 
Q 2900 3119 2900 3481 
Q 2900 3844 2670 4047 
Q 2441 4250 2034 4250 
Q 1625 4250 1398 4047 
Q 1172 3844 1172 3481 
z
" transform="scale(0.015625)"/>
       </defs>
       <use xlink:href="#DejaVuSans-30"/>
       <use xlink:href="#DejaVuSans-2e" transform="translate(63.623047 0)"/>
       <use xlink:href="#DejaVuSans-37" transform="translate(95.410156 0)"/>
       <use xlink:href="#DejaVuSans-38" transform="translate(159.033203 0)"/>
      </g>
     </g>
    </g>
    <g id="ytick_2">
     <g id="line2d_15">
      <path d="M 50.14375 196.012107 
L 422.54375 196.012107 
" clip-path="url(#p2df70d11b1)" style="fill: none; stroke: #b0b0b0; stroke-opacity: 0.2; stroke-width: 0.8; stroke-linecap: square"/>
     </g>
     <g id="line2d_16">
      <g>
       <use xlink:href="#m0641d0677f" x="50.14375" y="196.012107" style="stroke: #000000; stroke-width: 0.8"/>
      </g>
     </g>
     <g id="text_9">
      <!-- 0.80 -->
      <g transform="translate(20.878125 199.811326) scale(0.1 -0.1)">
       <use xlink:href="#DejaVuSans-30"/>
       <use xlink:href="#DejaVuSans-2e" transform="translate(63.623047 0)"/>
       <use xlink:href="#DejaVuSans-38" transform="translate(95.410156 0)"/>
       <use xlink:href="#DejaVuSans-30" transform="translate(159.033203 0)"/>
      </g>
     </g>
    </g>
    <g id="ytick_3">
     <g id="line2d_17">
      <path d="M 50.14375 147.692682 
L 422.54375 147.692682 
" clip-path="url(#p2df70d11b1)" style="fill: none; stroke: #b0b0b0; stroke-opacity: 0.2; stroke-width: 0.8; stroke-linecap: square"/>
     </g>
     <g id="line2d_18">
      <g>
       <use xlink:href="#m0641d0677f" x="50.14375" y="147.692682" style="stroke: #000000; stroke-width: 0.8"/>
      </g>
     </g>
     <g id="text_10">
      <!-- 0.82 -->
      <g transform="translate(20.878125 151.4919) scale(0.1 -0.1)">
       <use xlink:href="#DejaVuSans-30"/>
       <use xlink:href="#DejaVuSans-2e" transform="translate(63.623047 0)"/>
       <use xlink:href="#DejaVuSans-38" transform="translate(95.410156 0)"/>
       <use xlink:href="#DejaVuSans-32" transform="translate(159.033203 0)"/>
      </g>
     </g>
    </g>
    <g id="ytick_4">
     <g id="line2d_19">
      <path d="M 50.14375 99.373256 
L 422.54375 99.373256 
" clip-path="url(#p2df70d11b1)" style="fill: none; stroke: #b0b0b0; stroke-opacity: 0.2; stroke-width: 0.8; stroke-linecap: square"/>
     </g>
     <g id="line2d_20">
      <g>
       <use xlink:href="#m0641d0677f" x="50.14375" y="99.373256" style="stroke: #000000; stroke-width: 0.8"/>
      </g>
     </g>
     <g id="text_11">
      <!-- 0.84 -->
      <g transform="translate(20.878125 103.172475) scale(0.1 -0.1)">
       <use xlink:href="#DejaVuSans-30"/>
       <use xlink:href="#DejaVuSans-2e" transform="translate(63.623047 0)"/>
       <use xlink:href="#DejaVuSans-38" transform="translate(95.410156 0)"/>
       <use xlink:href="#DejaVuSans-34" transform="translate(159.033203 0)"/>
      </g>
     </g>
    </g>
    <g id="ytick_5">
     <g id="line2d_21">
      <path d="M 50.14375 51.05383 
L 422.54375 51.05383 
" clip-path="url(#p2df70d11b1)" style="fill: none; stroke: #b0b0b0; stroke-opacity: 0.2; stroke-width: 0.8; stroke-linecap: square"/>
     </g>
     <g id="line2d_22">
      <g>
       <use xlink:href="#m0641d0677f" x="50.14375" y="51.05383" style="stroke: #000000; stroke-width: 0.8"/>
      </g>
     </g>
     <g id="text_12">
      <!-- 0.86 -->
      <g transform="translate(20.878125 54.853049) scale(0.1 -0.1)">
       <use xlink:href="#DejaVuSans-30"/>
       <use xlink:href="#DejaVuSans-2e" transform="translate(63.623047 0)"/>
       <use xlink:href="#DejaVuSans-38" transform="translate(95.410156 0)"/>
       <use xlink:href="#DejaVuSans-36" transform="translate(159.033203 0)"/>
      </g>
     </g>
    </g>
    <g id="text_13">
     <!-- F1 -->
     <g transform="translate(14.798438 171.733281) rotate(-90) scale(0.1 -0.1)">
      <defs>
       <path id="DejaVuSans-46" d="M 628 4666 
L 3309 4666 
L 3309 4134 
L 1259 4134 
L 1259 2759 
L 3109 2759 
L 3109 2228 
L 1259 2228 
L 1259 0 
L 628 0 
L 628 4666 
z
" transform="scale(0.015625)"/>
      </defs>
      <use xlink:href="#DejaVuSans-46"/>
      <use xlink:href="#DejaVuSans-31" transform="translate(57.519531 0)"/>
     </g>
    </g>
   </g>
   <g id="line2d_23">
    <path d="M 67.071023 84.939449 
L 134.001419 68.658582 
L 200.931815 65.450571 
L 267.862211 60.893957 
L 334.792607 59.236477 
L 405.616477 174.078056 
" clip-path="url(#p2df70d11b1)" style="fill: none; stroke: #162b4d; stroke-width: 1.5; stroke-linecap: square"/>
    <defs>
     <path id="mc2054d08fc" d="M 0 3 
C 0.795609 3 1.55874 2.683901 2.12132 2.12132 
C 2.683901 1.55874 3 0.795609 3 0 
C 3 -0.795609 2.683901 -1.55874 2.12132 -2.12132 
C 1.55874 -2.683901 0.795609 -3 0 -3 
C -0.795609 -3 -1.55874 -2.683901 -2.12132 -2.12132 
C -2.683901 -1.55874 -3 -0.795609 -3 0 
C -3 0.795609 -2.683901 1.55874 -2.12132 2.12132 
C -1.55874 2.683901 -0.795609 3 0 3 
z
" style="stroke: #162b4d"/>
    </defs>
    <g clip-path="url(#p2df70d11b1)">
     <use xlink:href="#mc2054d08fc" x="67.071023" y="84.939449" style="fill: #162b4d; stroke: #162b4d"/>
     <use xlink:href="#mc2054d08fc" x="134.001419" y="68.658582" style="fill: #162b4d; stroke: #162b4d"/>
     <use xlink:href="#mc2054d08fc" x="200.931815" y="65.450571" style="fill: #162b4d; stroke: #162b4d"/>
     <use xlink:href="#mc2054d08fc" x="267.862211" y="60.893957" style="fill: #162b4d; stroke: #162b4d"/>
     <use xlink:href="#mc2054d08fc" x="334.792607" y="59.236477" style="fill: #162b4d; stroke: #162b4d"/>
     <use xlink:href="#mc2054d08fc" x="405.616477" y="174.078056" style="fill: #162b4d; stroke: #162b4d"/>
    </g>
   </g>
   <g id="line2d_24">
    <path d="M 67.071023 272.116023 
L 134.001419 272.116023 
L 200.931815 272.116023 
L 267.862211 272.116023 
L 334.792607 272.116023 
L 405.616477 272.116023 
" clip-path="url(#p2df70d11b1)" style="fill: none; stroke-dasharray: 5.55,2.4; stroke-dashoffset: 0; stroke: #167d7f; stroke-width: 1.5"/>
   </g>
   <g id="patch_3">
    <path d="M 50.14375 282.76 
L 50.14375 48.5925 
" style="fill: none; stroke: #000000; stroke-width: 0.8; stroke-linejoin: miter; stroke-linecap: square"/>
   </g>
   <g id="patch_4">
    <path d="M 50.14375 282.76 
L 422.54375 282.76 
" style="fill: none; stroke: #000000; stroke-width: 0.8; stroke-linejoin: miter; stroke-linecap: square"/>
   </g>
   <g id="text_14">
    <!-- F1 -->
    <g transform="translate(229.075313 42.5925) scale(0.12 -0.12)">
     <use xlink:href="#DejaVuSans-46"/>
     <use xlink:href="#DejaVuSans-31" transform="translate(57.519531 0)"/>
    </g>
   </g>
   <g id="legend_1">
    <g id="patch_5">
     <path d="M 56.44375 186.841719 
L 227.328437 186.841719 
Q 229.128437 186.841719 229.128437 185.041719 
L 229.128437 146.310781 
Q 229.128437 144.510781 227.328437 144.510781 
L 56.44375 144.510781 
Q 54.64375 144.510781 54.64375 146.310781 
L 54.64375 185.041719 
Q 54.64375 186.841719 56.44375 186.841719 
z
" style="fill: #ffffff; opacity: 0.8; stroke: #cccccc; stroke-linejoin: miter"/>
    </g>
    <g id="line2d_25">
     <path d="M 58.24375 151.799375 
L 67.24375 151.799375 
L 76.24375 151.799375 
" style="fill: none; stroke: #162b4d; stroke-width: 1.5; stroke-linecap: square"/>
     <g>
      <use xlink:href="#mc2054d08fc" x="67.24375" y="151.799375" style="fill: #162b4d; stroke: #162b4d"/>
     </g>
    </g>
    <g id="text_15">
     <!-- KR, исходный порядок -->
     <g transform="translate(83.44375 154.949375) scale(0.09 -0.09)">
      <defs>
       <path id="DejaVuSans-4b" d="M 628 4666 
L 1259 4666 
L 1259 2694 
L 3353 4666 
L 4166 4666 
L 1850 2491 
L 4331 0 
L 3500 0 
L 1259 2247 
L 1259 0 
L 628 0 
L 628 4666 
z
" transform="scale(0.015625)"/>
       <path id="DejaVuSans-52" d="M 2841 2188 
Q 3044 2119 3236 1894 
Q 3428 1669 3622 1275 
L 4263 0 
L 3584 0 
L 2988 1197 
Q 2756 1666 2539 1819 
Q 2322 1972 1947 1972 
L 1259 1972 
L 1259 0 
L 628 0 
L 628 4666 
L 2053 4666 
Q 2853 4666 3247 4331 
Q 3641 3997 3641 3322 
Q 3641 2881 3436 2590 
Q 3231 2300 2841 2188 
z
M 1259 4147 
L 1259 2491 
L 2053 2491 
Q 2509 2491 2742 2702 
Q 2975 2913 2975 3322 
Q 2975 3731 2742 3939 
Q 2509 4147 2053 4147 
L 1259 4147 
z
" transform="scale(0.015625)"/>
       <path id="DejaVuSans-2c" d="M 750 794 
L 1409 794 
L 1409 256 
L 897 -744 
L 494 -744 
L 750 256 
L 750 794 
z
" transform="scale(0.015625)"/>
       <path id="DejaVuSans-445" d="M 3513 3500 
L 2247 1797 
L 3578 0 
L 2900 0 
L 1881 1375 
L 863 0 
L 184 0 
L 1544 1831 
L 300 3500 
L 978 3500 
L 1906 2253 
L 2834 3500 
L 3513 3500 
z
" transform="scale(0.015625)"/>
       <path id="DejaVuSans-434" d="M 1384 459 
L 3053 459 
L 3053 3041 
L 1844 3041 
L 1844 2603 
Q 1844 1316 1475 628 
L 1384 459 
z
M 550 459 
Q 834 584 959 850 
Q 1266 1509 1266 2838 
L 1266 3500 
L 3631 3500 
L 3631 459 
L 4091 459 
L 4091 -884 
L 3631 -884 
L 3631 0 
L 794 0 
L 794 -884 
L 334 -884 
L 334 459 
L 550 459 
z
" transform="scale(0.015625)"/>
       <path id="DejaVuSans-43d" d="M 581 3500 
L 1159 3500 
L 1159 2072 
L 3025 2072 
L 3025 3500 
L 3603 3500 
L 3603 0 
L 3025 0 
L 3025 1613 
L 1159 1613 
L 1159 0 
L 581 0 
L 581 3500 
z
" transform="scale(0.015625)"/>
       <path id="DejaVuSans-44b" d="M 3909 3500 
L 4484 3500 
L 4484 0 
L 3909 0 
L 3909 3500 
z
M 4197 3584 
L 4197 3584 
z
M 2781 1038 
Q 2781 1319 2576 1466 
Q 2372 1613 1978 1613 
L 1159 1613 
L 1159 459 
L 1978 459 
Q 2372 459 2576 607 
Q 2781 756 2781 1038 
z
M 581 3500 
L 1159 3500 
L 1159 2072 
L 2003 2072 
Q 2672 2072 3033 1817 
Q 3394 1563 3394 1038 
Q 3394 513 3033 256 
Q 2672 0 2003 0 
L 581 0 
L 581 3500 
z
" transform="scale(0.015625)"/>
       <path id="DejaVuSans-439" d="M 3578 3500 
L 3578 0 
L 3006 0 
L 3006 2809 
L 1319 0 
L 581 0 
L 581 3500 
L 1153 3500 
L 1153 697 
L 2838 3500 
L 3578 3500 
z
M 1103 4862 
L 1472 4862 
Q 1506 4628 1657 4510 
Q 1809 4393 2081 4393 
Q 2350 4393 2500 4509 
Q 2650 4625 2691 4862 
L 3059 4862 
Q 3028 4415 2781 4190 
Q 2534 3965 2081 3965 
Q 1628 3965 1381 4190 
Q 1134 4415 1103 4862 
z
" transform="scale(0.015625)"/>
      </defs>
      <use xlink:href="#DejaVuSans-4b"/>
      <use xlink:href="#DejaVuSans-52" transform="translate(65.576172 0)"/>
      <use xlink:href="#DejaVuSans-2c" transform="translate(135.058594 0)"/>
      <use xlink:href="#DejaVuSans-20" transform="translate(166.845703 0)"/>
      <use xlink:href="#DejaVuSans-438" transform="translate(198.632812 0)"/>
      <use xlink:href="#DejaVuSans-441" transform="translate(263.623047 0)"/>
      <use xlink:href="#DejaVuSans-445" transform="translate(318.603516 0)"/>
      <use xlink:href="#DejaVuSans-43e" transform="translate(377.783203 0)"/>
      <use xlink:href="#DejaVuSans-434" transform="translate(438.964844 0)"/>
      <use xlink:href="#DejaVuSans-43d" transform="translate(508.105469 0)"/>
      <use xlink:href="#DejaVuSans-44b" transform="translate(573.486328 0)"/>
      <use xlink:href="#DejaVuSans-439" transform="translate(652.441406 0)"/>
      <use xlink:href="#DejaVuSans-20" transform="translate(717.431641 0)"/>
      <use xlink:href="#DejaVuSans-43f" transform="translate(749.21875 0)"/>
      <use xlink:href="#DejaVuSans-43e" transform="translate(814.599609 0)"/>
      <use xlink:href="#DejaVuSans-440" transform="translate(875.78125 0)"/>
      <use xlink:href="#DejaVuSans-44f" transform="translate(939.257812 0)"/>
      <use xlink:href="#DejaVuSans-434" transform="translate(999.414062 0)"/>
      <use xlink:href="#DejaVuSans-43e" transform="translate(1068.554688 0)"/>
      <use xlink:href="#DejaVuSans-43a" transform="translate(1129.736328 0)"/>
     </g>
    </g>
    <g id="PathCollection_2">
     <g>
      <use xlink:href="#mca58fec6b2" x="67.24375" y="165.797187" style="fill: #af482a; stroke: #af482a; stroke-width: 1.5"/>
     </g>
    </g>
    <g id="text_16">
     <!-- KR, три перестановки -->
     <g transform="translate(83.44375 168.159687) scale(0.09 -0.09)">
      <use xlink:href="#DejaVuSans-4b"/>
      <use xlink:href="#DejaVuSans-52" transform="translate(65.576172 0)"/>
      <use xlink:href="#DejaVuSans-2c" transform="translate(135.058594 0)"/>
      <use xlink:href="#DejaVuSans-20" transform="translate(166.845703 0)"/>
      <use xlink:href="#DejaVuSans-442" transform="translate(198.632812 0)"/>
      <use xlink:href="#DejaVuSans-440" transform="translate(256.884766 0)"/>
      <use xlink:href="#DejaVuSans-438" transform="translate(320.361328 0)"/>
      <use xlink:href="#DejaVuSans-20" transform="translate(385.351562 0)"/>
      <use xlink:href="#DejaVuSans-43f" transform="translate(417.138672 0)"/>
      <use xlink:href="#DejaVuSans-435" transform="translate(482.519531 0)"/>
      <use xlink:href="#DejaVuSans-440" transform="translate(544.042969 0)"/>
      <use xlink:href="#DejaVuSans-435" transform="translate(607.519531 0)"/>
      <use xlink:href="#DejaVuSans-441" transform="translate(669.042969 0)"/>
      <use xlink:href="#DejaVuSans-442" transform="translate(724.023438 0)"/>
      <use xlink:href="#DejaVuSans-430" transform="translate(782.275391 0)"/>
      <use xlink:href="#DejaVuSans-43d" transform="translate(843.554688 0)"/>
      <use xlink:href="#DejaVuSans-43e" transform="translate(908.935547 0)"/>
      <use xlink:href="#DejaVuSans-432" transform="translate(970.117188 0)"/>
      <use xlink:href="#DejaVuSans-43a" transform="translate(1029.052734 0)"/>
      <use xlink:href="#DejaVuSans-438" transform="translate(1089.453125 0)"/>
     </g>
    </g>
    <g id="line2d_26">
     <path d="M 58.24375 178.22 
L 67.24375 178.22 
L 76.24375 178.22 
" style="fill: none; stroke-dasharray: 5.55,2.4; stroke-dashoffset: 0; stroke: #167d7f; stroke-width: 1.5"/>
    </g>
    <g id="text_17">
     <!-- Cosine, измеренный контроль -->
     <g transform="translate(83.44375 181.37) scale(0.09 -0.09)">
      <defs>
       <path id="DejaVuSans-43" d="M 4122 4306 
L 4122 3641 
Q 3803 3938 3442 4084 
Q 3081 4231 2675 4231 
Q 1875 4231 1450 3742 
Q 1025 3253 1025 2328 
Q 1025 1406 1450 917 
Q 1875 428 2675 428 
Q 3081 428 3442 575 
Q 3803 722 4122 1019 
L 4122 359 
Q 3791 134 3420 21 
Q 3050 -91 2638 -91 
Q 1578 -91 968 557 
Q 359 1206 359 2328 
Q 359 3453 968 4101 
Q 1578 4750 2638 4750 
Q 3056 4750 3426 4639 
Q 3797 4528 4122 4306 
z
" transform="scale(0.015625)"/>
       <path id="DejaVuSans-6f" d="M 1959 3097 
Q 1497 3097 1228 2736 
Q 959 2375 959 1747 
Q 959 1119 1226 758 
Q 1494 397 1959 397 
Q 2419 397 2687 759 
Q 2956 1122 2956 1747 
Q 2956 2369 2687 2733 
Q 2419 3097 1959 3097 
z
M 1959 3584 
Q 2709 3584 3137 3096 
Q 3566 2609 3566 1747 
Q 3566 888 3137 398 
Q 2709 -91 1959 -91 
Q 1206 -91 779 398 
Q 353 888 353 1747 
Q 353 2609 779 3096 
Q 1206 3584 1959 3584 
z
" transform="scale(0.015625)"/>
       <path id="DejaVuSans-73" d="M 2834 3397 
L 2834 2853 
Q 2591 2978 2328 3040 
Q 2066 3103 1784 3103 
Q 1356 3103 1142 2972 
Q 928 2841 928 2578 
Q 928 2378 1081 2264 
Q 1234 2150 1697 2047 
L 1894 2003 
Q 2506 1872 2764 1633 
Q 3022 1394 3022 966 
Q 3022 478 2636 193 
Q 2250 -91 1575 -91 
Q 1294 -91 989 -36 
Q 684 19 347 128 
L 347 722 
Q 666 556 975 473 
Q 1284 391 1588 391 
Q 1994 391 2212 530 
Q 2431 669 2431 922 
Q 2431 1156 2273 1281 
Q 2116 1406 1581 1522 
L 1381 1569 
Q 847 1681 609 1914 
Q 372 2147 372 2553 
Q 372 3047 722 3315 
Q 1072 3584 1716 3584 
Q 2034 3584 2315 3537 
Q 2597 3491 2834 3397 
z
" transform="scale(0.015625)"/>
       <path id="DejaVuSans-69" d="M 603 3500 
L 1178 3500 
L 1178 0 
L 603 0 
L 603 3500 
z
M 603 4863 
L 1178 4863 
L 1178 4134 
L 603 4134 
L 603 4863 
z
" transform="scale(0.015625)"/>
       <path id="DejaVuSans-6e" d="M 3513 2113 
L 3513 0 
L 2938 0 
L 2938 2094 
Q 2938 2591 2744 2837 
Q 2550 3084 2163 3084 
Q 1697 3084 1428 2787 
Q 1159 2491 1159 1978 
L 1159 0 
L 581 0 
L 581 3500 
L 1159 3500 
L 1159 2956 
Q 1366 3272 1645 3428 
Q 1925 3584 2291 3584 
Q 2894 3584 3203 3211 
Q 3513 2838 3513 2113 
z
" transform="scale(0.015625)"/>
       <path id="DejaVuSans-65" d="M 3597 1894 
L 3597 1613 
L 953 1613 
Q 991 1019 1311 708 
Q 1631 397 2203 397 
Q 2534 397 2845 478 
Q 3156 559 3463 722 
L 3463 178 
Q 3153 47 2828 -22 
Q 2503 -91 2169 -91 
Q 1331 -91 842 396 
Q 353 884 353 1716 
Q 353 2575 817 3079 
Q 1281 3584 2069 3584 
Q 2775 3584 3186 3129 
Q 3597 2675 3597 1894 
z
M 3022 2063 
Q 3016 2534 2758 2815 
Q 2500 3097 2075 3097 
Q 1594 3097 1305 2825 
Q 1016 2553 972 2059 
L 3022 2063 
z
" transform="scale(0.015625)"/>
       <path id="DejaVuSans-43c" d="M 581 3500 
L 1422 3500 
L 2416 1156 
L 3413 3500 
L 4247 3500 
L 4247 0 
L 3669 0 
L 3669 2950 
L 2703 672 
L 2128 672 
L 1159 2950 
L 1159 0 
L 581 0 
L 581 3500 
z
" transform="scale(0.015625)"/>
       <path id="DejaVuSans-44c" d="M 2781 1038 
Q 2781 1319 2576 1466 
Q 2372 1613 1978 1613 
L 1159 1613 
L 1159 459 
L 1978 459 
Q 2372 459 2576 607 
Q 2781 756 2781 1038 
z
M 581 3500 
L 1159 3500 
L 1159 2072 
L 2003 2072 
Q 2672 2072 3033 1817 
Q 3394 1563 3394 1038 
Q 3394 513 3033 256 
Q 2672 0 2003 0 
L 581 0 
L 581 3500 
z
" transform="scale(0.015625)"/>
      </defs>
      <use xlink:href="#DejaVuSans-43"/>
      <use xlink:href="#DejaVuSans-6f" transform="translate(69.824219 0)"/>
      <use xlink:href="#DejaVuSans-73" transform="translate(131.005859 0)"/>
      <use xlink:href="#DejaVuSans-69" transform="translate(183.105469 0)"/>
      <use xlink:href="#DejaVuSans-6e" transform="translate(210.888672 0)"/>
      <use xlink:href="#DejaVuSans-65" transform="translate(274.267578 0)"/>
      <use xlink:href="#DejaVuSans-2c" transform="translate(335.791016 0)"/>
      <use xlink:href="#DejaVuSans-20" transform="translate(367.578125 0)"/>
      <use xlink:href="#DejaVuSans-438" transform="translate(399.365234 0)"/>
      <use xlink:href="#DejaVuSans-437" transform="translate(464.355469 0)"/>
      <use xlink:href="#DejaVuSans-43c" transform="translate(517.529297 0)"/>
      <use xlink:href="#DejaVuSans-435" transform="translate(592.96875 0)"/>
      <use xlink:href="#DejaVuSans-440" transform="translate(654.492188 0)"/>
      <use xlink:href="#DejaVuSans-435" transform="translate(717.96875 0)"/>
      <use xlink:href="#DejaVuSans-43d" transform="translate(779.492188 0)"/>
      <use xlink:href="#DejaVuSans-43d" transform="translate(844.873047 0)"/>
      <use xlink:href="#DejaVuSans-44b" transform="translate(910.253906 0)"/>
      <use xlink:href="#DejaVuSans-439" transform="translate(989.208984 0)"/>
      <use xlink:href="#DejaVuSans-20" transform="translate(1054.199219 0)"/>
      <use xlink:href="#DejaVuSans-43a" transform="translate(1085.986328 0)"/>
      <use xlink:href="#DejaVuSans-43e" transform="translate(1146.386719 0)"/>
      <use xlink:href="#DejaVuSans-43d" transform="translate(1207.568359 0)"/>
      <use xlink:href="#DejaVuSans-442" transform="translate(1272.949219 0)"/>
      <use xlink:href="#DejaVuSans-440" transform="translate(1331.201172 0)"/>
      <use xlink:href="#DejaVuSans-43e" transform="translate(1394.677734 0)"/>
      <use xlink:href="#DejaVuSans-43b" transform="translate(1455.859375 0)"/>
      <use xlink:href="#DejaVuSans-44c" transform="translate(1519.775391 0)"/>
     </g>
    </g>
   </g>
  </g>
  <g id="axes_2">
   <g id="patch_6">
    <path d="M 476.74375 282.76 
L 849.14375 282.76 
L 849.14375 48.5925 
L 476.74375 48.5925 
z
" style="fill: #ffffff"/>
   </g>
   <g id="PathCollection_3">
    <g clip-path="url(#pe1b0b04dbc)">
     <use xlink:href="#mca58fec6b2" x="560.601419" y="269.943782" style="fill: #af482a; stroke: #af482a; stroke-width: 1.5"/>
     <use xlink:href="#mca58fec6b2" x="560.601419" y="272.116023" style="fill: #af482a; stroke: #af482a; stroke-width: 1.5"/>
     <use xlink:href="#mca58fec6b2" x="560.601419" y="269.943782" style="fill: #af482a; stroke: #af482a; stroke-width: 1.5"/>
     <use xlink:href="#mca58fec6b2" x="627.531815" y="263.427062" style="fill: #af482a; stroke: #af482a; stroke-width: 1.5"/>
     <use xlink:href="#mca58fec6b2" x="627.531815" y="263.427062" style="fill: #af482a; stroke: #af482a; stroke-width: 1.5"/>
     <use xlink:href="#mca58fec6b2" x="627.531815" y="265.599302" style="fill: #af482a; stroke: #af482a; stroke-width: 1.5"/>
     <use xlink:href="#mca58fec6b2" x="694.462211" y="243.876899" style="fill: #af482a; stroke: #af482a; stroke-width: 1.5"/>
     <use xlink:href="#mca58fec6b2" x="694.462211" y="254.738101" style="fill: #af482a; stroke: #af482a; stroke-width: 1.5"/>
     <use xlink:href="#mca58fec6b2" x="694.462211" y="246.04914" style="fill: #af482a; stroke: #af482a; stroke-width: 1.5"/>
     <use xlink:href="#mca58fec6b2" x="761.392607" y="198.259854" style="fill: #af482a; stroke: #af482a; stroke-width: 1.5"/>
     <use xlink:href="#mca58fec6b2" x="761.392607" y="198.259854" style="fill: #af482a; stroke: #af482a; stroke-width: 1.5"/>
     <use xlink:href="#mca58fec6b2" x="761.392607" y="193.915373" style="fill: #af482a; stroke: #af482a; stroke-width: 1.5"/>
    </g>
   </g>
   <g id="matplotlib.axis_3">
    <g id="xtick_7">
     <g id="line2d_27">
      <path d="M 493.671023 282.76 
L 493.671023 48.5925 
" clip-path="url(#pe1b0b04dbc)" style="fill: none; stroke: #b0b0b0; stroke-opacity: 0.2; stroke-width: 0.8; stroke-linecap: square"/>
     </g>
     <g id="line2d_28">
      <g>
       <use xlink:href="#md14c37acc5" x="493.671023" y="282.76" style="stroke: #000000; stroke-width: 0.8"/>
      </g>
     </g>
     <g id="text_18">
      <!-- 1 -->
      <g transform="translate(490.489773 297.358437) scale(0.1 -0.1)">
       <use xlink:href="#DejaVuSans-31"/>
      </g>
     </g>
    </g>
    <g id="xtick_8">
     <g id="line2d_29">
      <path d="M 560.601419 282.76 
L 560.601419 48.5925 
" clip-path="url(#pe1b0b04dbc)" style="fill: none; stroke: #b0b0b0; stroke-opacity: 0.2; stroke-width: 0.8; stroke-linecap: square"/>
     </g>
     <g id="line2d_30">
      <g>
       <use xlink:href="#md14c37acc5" x="560.601419" y="282.76" style="stroke: #000000; stroke-width: 0.8"/>
      </g>
     </g>
     <g id="text_19">
      <!-- 4 -->
      <g transform="translate(557.420169 297.358437) scale(0.1 -0.1)">
       <use xlink:href="#DejaVuSans-34"/>
      </g>
     </g>
    </g>
    <g id="xtick_9">
     <g id="line2d_31">
      <path d="M 627.531815 282.76 
L 627.531815 48.5925 
" clip-path="url(#pe1b0b04dbc)" style="fill: none; stroke: #b0b0b0; stroke-opacity: 0.2; stroke-width: 0.8; stroke-linecap: square"/>
     </g>
     <g id="line2d_32">
      <g>
       <use xlink:href="#md14c37acc5" x="627.531815" y="282.76" style="stroke: #000000; stroke-width: 0.8"/>
      </g>
     </g>
     <g id="text_20">
      <!-- 16 -->
      <g transform="translate(621.169315 297.358437) scale(0.1 -0.1)">
       <use xlink:href="#DejaVuSans-31"/>
       <use xlink:href="#DejaVuSans-36" transform="translate(63.623047 0)"/>
      </g>
     </g>
    </g>
    <g id="xtick_10">
     <g id="line2d_33">
      <path d="M 694.462211 282.76 
L 694.462211 48.5925 
" clip-path="url(#pe1b0b04dbc)" style="fill: none; stroke: #b0b0b0; stroke-opacity: 0.2; stroke-width: 0.8; stroke-linecap: square"/>
     </g>
     <g id="line2d_34">
      <g>
       <use xlink:href="#md14c37acc5" x="694.462211" y="282.76" style="stroke: #000000; stroke-width: 0.8"/>
      </g>
     </g>
     <g id="text_21">
      <!-- 64 -->
      <g transform="translate(688.099711 297.358437) scale(0.1 -0.1)">
       <use xlink:href="#DejaVuSans-36"/>
       <use xlink:href="#DejaVuSans-34" transform="translate(63.623047 0)"/>
      </g>
     </g>
    </g>
    <g id="xtick_11">
     <g id="line2d_35">
      <path d="M 761.392607 282.76 
L 761.392607 48.5925 
" clip-path="url(#pe1b0b04dbc)" style="fill: none; stroke: #b0b0b0; stroke-opacity: 0.2; stroke-width: 0.8; stroke-linecap: square"/>
     </g>
     <g id="line2d_36">
      <g>
       <use xlink:href="#md14c37acc5" x="761.392607" y="282.76" style="stroke: #000000; stroke-width: 0.8"/>
      </g>
     </g>
     <g id="text_22">
      <!-- 256 -->
      <g transform="translate(751.848857 297.358437) scale(0.1 -0.1)">
       <use xlink:href="#DejaVuSans-32"/>
       <use xlink:href="#DejaVuSans-35" transform="translate(63.623047 0)"/>
       <use xlink:href="#DejaVuSans-36" transform="translate(127.246094 0)"/>
      </g>
     </g>
    </g>
    <g id="xtick_12">
     <g id="line2d_37">
      <path d="M 832.216477 282.76 
L 832.216477 48.5925 
" clip-path="url(#pe1b0b04dbc)" style="fill: none; stroke: #b0b0b0; stroke-opacity: 0.2; stroke-width: 0.8; stroke-linecap: square"/>
     </g>
     <g id="line2d_38">
      <g>
       <use xlink:href="#md14c37acc5" x="832.216477" y="282.76" style="stroke: #000000; stroke-width: 0.8"/>
      </g>
     </g>
     <g id="text_23">
      <!-- 1110 -->
      <g transform="translate(819.491477 297.358437) scale(0.1 -0.1)">
       <use xlink:href="#DejaVuSans-31"/>
       <use xlink:href="#DejaVuSans-31" transform="translate(63.623047 0)"/>
       <use xlink:href="#DejaVuSans-31" transform="translate(127.246094 0)"/>
       <use xlink:href="#DejaVuSans-30" transform="translate(190.869141 0)"/>
      </g>
     </g>
    </g>
    <g id="text_24">
     <!-- Число запросов в пакете (галерея 750) -->
     <g transform="translate(559.302344 311.036562) scale(0.1 -0.1)">
      <use xlink:href="#DejaVuSans-427"/>
      <use xlink:href="#DejaVuSans-438" transform="translate(68.554688 0)"/>
      <use xlink:href="#DejaVuSans-441" transform="translate(133.544922 0)"/>
      <use xlink:href="#DejaVuSans-43b" transform="translate(188.525391 0)"/>
      <use xlink:href="#DejaVuSans-43e" transform="translate(252.441406 0)"/>
      <use xlink:href="#DejaVuSans-20" transform="translate(313.623047 0)"/>
      <use xlink:href="#DejaVuSans-437" transform="translate(345.410156 0)"/>
      <use xlink:href="#DejaVuSans-430" transform="translate(398.583984 0)"/>
      <use xlink:href="#DejaVuSans-43f" transform="translate(459.863281 0)"/>
      <use xlink:href="#DejaVuSans-440" transform="translate(525.244141 0)"/>
      <use xlink:href="#DejaVuSans-43e" transform="translate(588.720703 0)"/>
      <use xlink:href="#DejaVuSans-441" transform="translate(649.902344 0)"/>
      <use xlink:href="#DejaVuSans-43e" transform="translate(704.882812 0)"/>
      <use xlink:href="#DejaVuSans-432" transform="translate(766.064453 0)"/>
      <use xlink:href="#DejaVuSans-20" transform="translate(825 0)"/>
      <use xlink:href="#DejaVuSans-432" transform="translate(856.787109 0)"/>
      <use xlink:href="#DejaVuSans-20" transform="translate(915.722656 0)"/>
      <use xlink:href="#DejaVuSans-43f" transform="translate(947.509766 0)"/>
      <use xlink:href="#DejaVuSans-430" transform="translate(1012.890625 0)"/>
      <use xlink:href="#DejaVuSans-43a" transform="translate(1074.169922 0)"/>
      <use xlink:href="#DejaVuSans-435" transform="translate(1134.570312 0)"/>
      <use xlink:href="#DejaVuSans-442" transform="translate(1196.09375 0)"/>
      <use xlink:href="#DejaVuSans-435" transform="translate(1254.345703 0)"/>
      <use xlink:href="#DejaVuSans-20" transform="translate(1315.869141 0)"/>
      <use xlink:href="#DejaVuSans-28" transform="translate(1347.65625 0)"/>
      <use xlink:href="#DejaVuSans-433" transform="translate(1386.669922 0)"/>
      <use xlink:href="#DejaVuSans-430" transform="translate(1439.208984 0)"/>
      <use xlink:href="#DejaVuSans-43b" transform="translate(1500.488281 0)"/>
      <use xlink:href="#DejaVuSans-435" transform="translate(1564.404297 0)"/>
      <use xlink:href="#DejaVuSans-440" transform="translate(1625.927734 0)"/>
      <use xlink:href="#DejaVuSans-435" transform="translate(1689.404297 0)"/>
      <use xlink:href="#DejaVuSans-44f" transform="translate(1750.927734 0)"/>
      <use xlink:href="#DejaVuSans-20" transform="translate(1811.083984 0)"/>
      <use xlink:href="#DejaVuSans-37" transform="translate(1842.871094 0)"/>
      <use xlink:href="#DejaVuSans-35" transform="translate(1906.494141 0)"/>
      <use xlink:href="#DejaVuSans-30" transform="translate(1970.117188 0)"/>
      <use xlink:href="#DejaVuSans-29" transform="translate(2033.740234 0)"/>
     </g>
    </g>
   </g>
   <g id="matplotlib.axis_4">
    <g id="ytick_6">
     <g id="line2d_39">
      <path d="M 476.74375 261.037597 
L 849.14375 261.037597 
" clip-path="url(#pe1b0b04dbc)" style="fill: none; stroke: #b0b0b0; stroke-opacity: 0.2; stroke-width: 0.8; stroke-linecap: square"/>
     </g>
     <g id="line2d_40">
      <g>
       <use xlink:href="#m0641d0677f" x="476.74375" y="261.037597" style="stroke: #000000; stroke-width: 0.8"/>
      </g>
     </g>
     <g id="text_25">
      <!-- 0.45 -->
      <g transform="translate(447.478125 264.836816) scale(0.1 -0.1)">
       <use xlink:href="#DejaVuSans-30"/>
       <use xlink:href="#DejaVuSans-2e" transform="translate(63.623047 0)"/>
       <use xlink:href="#DejaVuSans-34" transform="translate(95.410156 0)"/>
       <use xlink:href="#DejaVuSans-35" transform="translate(159.033203 0)"/>
      </g>
     </g>
    </g>
    <g id="ytick_7">
     <g id="line2d_41">
      <path d="M 476.74375 230.843458 
L 849.14375 230.843458 
" clip-path="url(#pe1b0b04dbc)" style="fill: none; stroke: #b0b0b0; stroke-opacity: 0.2; stroke-width: 0.8; stroke-linecap: square"/>
     </g>
     <g id="line2d_42">
      <g>
       <use xlink:href="#m0641d0677f" x="476.74375" y="230.843458" style="stroke: #000000; stroke-width: 0.8"/>
      </g>
     </g>
     <g id="text_26">
      <!-- 0.50 -->
      <g transform="translate(447.478125 234.642677) scale(0.1 -0.1)">
       <use xlink:href="#DejaVuSans-30"/>
       <use xlink:href="#DejaVuSans-2e" transform="translate(63.623047 0)"/>
       <use xlink:href="#DejaVuSans-35" transform="translate(95.410156 0)"/>
       <use xlink:href="#DejaVuSans-30" transform="translate(159.033203 0)"/>
      </g>
     </g>
    </g>
    <g id="ytick_8">
     <g id="line2d_43">
      <path d="M 476.74375 200.649318 
L 849.14375 200.649318 
" clip-path="url(#pe1b0b04dbc)" style="fill: none; stroke: #b0b0b0; stroke-opacity: 0.2; stroke-width: 0.8; stroke-linecap: square"/>
     </g>
     <g id="line2d_44">
      <g>
       <use xlink:href="#m0641d0677f" x="476.74375" y="200.649318" style="stroke: #000000; stroke-width: 0.8"/>
      </g>
     </g>
     <g id="text_27">
      <!-- 0.55 -->
      <g transform="translate(447.478125 204.448537) scale(0.1 -0.1)">
       <use xlink:href="#DejaVuSans-30"/>
       <use xlink:href="#DejaVuSans-2e" transform="translate(63.623047 0)"/>
       <use xlink:href="#DejaVuSans-35" transform="translate(95.410156 0)"/>
       <use xlink:href="#DejaVuSans-35" transform="translate(159.033203 0)"/>
      </g>
     </g>
    </g>
    <g id="ytick_9">
     <g id="line2d_45">
      <path d="M 476.74375 170.455179 
L 849.14375 170.455179 
" clip-path="url(#pe1b0b04dbc)" style="fill: none; stroke: #b0b0b0; stroke-opacity: 0.2; stroke-width: 0.8; stroke-linecap: square"/>
     </g>
     <g id="line2d_46">
      <g>
       <use xlink:href="#m0641d0677f" x="476.74375" y="170.455179" style="stroke: #000000; stroke-width: 0.8"/>
      </g>
     </g>
     <g id="text_28">
      <!-- 0.60 -->
      <g transform="translate(447.478125 174.254397) scale(0.1 -0.1)">
       <use xlink:href="#DejaVuSans-30"/>
       <use xlink:href="#DejaVuSans-2e" transform="translate(63.623047 0)"/>
       <use xlink:href="#DejaVuSans-36" transform="translate(95.410156 0)"/>
       <use xlink:href="#DejaVuSans-30" transform="translate(159.033203 0)"/>
      </g>
     </g>
    </g>
    <g id="ytick_10">
     <g id="line2d_47">
      <path d="M 476.74375 140.261039 
L 849.14375 140.261039 
" clip-path="url(#pe1b0b04dbc)" style="fill: none; stroke: #b0b0b0; stroke-opacity: 0.2; stroke-width: 0.8; stroke-linecap: square"/>
     </g>
     <g id="line2d_48">
      <g>
       <use xlink:href="#m0641d0677f" x="476.74375" y="140.261039" style="stroke: #000000; stroke-width: 0.8"/>
      </g>
     </g>
     <g id="text_29">
      <!-- 0.65 -->
      <g transform="translate(447.478125 144.060258) scale(0.1 -0.1)">
       <use xlink:href="#DejaVuSans-30"/>
       <use xlink:href="#DejaVuSans-2e" transform="translate(63.623047 0)"/>
       <use xlink:href="#DejaVuSans-36" transform="translate(95.410156 0)"/>
       <use xlink:href="#DejaVuSans-35" transform="translate(159.033203 0)"/>
      </g>
     </g>
    </g>
    <g id="ytick_11">
     <g id="line2d_49">
      <path d="M 476.74375 110.066899 
L 849.14375 110.066899 
" clip-path="url(#pe1b0b04dbc)" style="fill: none; stroke: #b0b0b0; stroke-opacity: 0.2; stroke-width: 0.8; stroke-linecap: square"/>
     </g>
     <g id="line2d_50">
      <g>
       <use xlink:href="#m0641d0677f" x="476.74375" y="110.066899" style="stroke: #000000; stroke-width: 0.8"/>
      </g>
     </g>
     <g id="text_30">
      <!-- 0.70 -->
      <g transform="translate(447.478125 113.866118) scale(0.1 -0.1)">
       <use xlink:href="#DejaVuSans-30"/>
       <use xlink:href="#DejaVuSans-2e" transform="translate(63.623047 0)"/>
       <use xlink:href="#DejaVuSans-37" transform="translate(95.410156 0)"/>
       <use xlink:href="#DejaVuSans-30" transform="translate(159.033203 0)"/>
      </g>
     </g>
    </g>
    <g id="ytick_12">
     <g id="line2d_51">
      <path d="M 476.74375 79.87276 
L 849.14375 79.87276 
" clip-path="url(#pe1b0b04dbc)" style="fill: none; stroke: #b0b0b0; stroke-opacity: 0.2; stroke-width: 0.8; stroke-linecap: square"/>
     </g>
     <g id="line2d_52">
      <g>
       <use xlink:href="#m0641d0677f" x="476.74375" y="79.87276" style="stroke: #000000; stroke-width: 0.8"/>
      </g>
     </g>
     <g id="text_31">
      <!-- 0.75 -->
      <g transform="translate(447.478125 83.671978) scale(0.1 -0.1)">
       <use xlink:href="#DejaVuSans-30"/>
       <use xlink:href="#DejaVuSans-2e" transform="translate(63.623047 0)"/>
       <use xlink:href="#DejaVuSans-37" transform="translate(95.410156 0)"/>
       <use xlink:href="#DejaVuSans-35" transform="translate(159.033203 0)"/>
      </g>
     </g>
    </g>
    <g id="ytick_13">
     <g id="line2d_53">
      <path d="M 476.74375 49.67862 
L 849.14375 49.67862 
" clip-path="url(#pe1b0b04dbc)" style="fill: none; stroke: #b0b0b0; stroke-opacity: 0.2; stroke-width: 0.8; stroke-linecap: square"/>
     </g>
     <g id="line2d_54">
      <g>
       <use xlink:href="#m0641d0677f" x="476.74375" y="49.67862" style="stroke: #000000; stroke-width: 0.8"/>
      </g>
     </g>
     <g id="text_32">
      <!-- 0.80 -->
      <g transform="translate(447.478125 53.477839) scale(0.1 -0.1)">
       <use xlink:href="#DejaVuSans-30"/>
       <use xlink:href="#DejaVuSans-2e" transform="translate(63.623047 0)"/>
       <use xlink:href="#DejaVuSans-38" transform="translate(95.410156 0)"/>
       <use xlink:href="#DejaVuSans-30" transform="translate(159.033203 0)"/>
      </g>
     </g>
    </g>
    <g id="text_33">
     <!-- TNR -->
     <g transform="translate(441.398438 175.945) rotate(-90) scale(0.1 -0.1)">
      <defs>
       <path id="DejaVuSans-54" d="M -19 4666 
L 3928 4666 
L 3928 4134 
L 2272 4134 
L 2272 0 
L 1638 0 
L 1638 4134 
L -19 4134 
L -19 4666 
z
" transform="scale(0.015625)"/>
       <path id="DejaVuSans-4e" d="M 628 4666 
L 1478 4666 
L 3547 763 
L 3547 4666 
L 4159 4666 
L 4159 0 
L 3309 0 
L 1241 3903 
L 1241 0 
L 628 0 
L 628 4666 
z
" transform="scale(0.015625)"/>
      </defs>
      <use xlink:href="#DejaVuSans-54"/>
      <use xlink:href="#DejaVuSans-4e" transform="translate(61.083984 0)"/>
      <use xlink:href="#DejaVuSans-52" transform="translate(135.888672 0)"/>
     </g>
    </g>
   </g>
   <g id="line2d_55">
    <path d="M 493.671023 269.943782 
L 560.601419 211.293295 
L 627.531815 185.226412 
L 694.462211 165.67625 
L 761.392607 130.920406 
L 832.216477 59.236477 
" clip-path="url(#pe1b0b04dbc)" style="fill: none; stroke: #162b4d; stroke-width: 1.5; stroke-linecap: square"/>
    <g clip-path="url(#pe1b0b04dbc)">
     <use xlink:href="#mc2054d08fc" x="493.671023" y="269.943782" style="fill: #162b4d; stroke: #162b4d"/>
     <use xlink:href="#mc2054d08fc" x="560.601419" y="211.293295" style="fill: #162b4d; stroke: #162b4d"/>
     <use xlink:href="#mc2054d08fc" x="627.531815" y="185.226412" style="fill: #162b4d; stroke: #162b4d"/>
     <use xlink:href="#mc2054d08fc" x="694.462211" y="165.67625" style="fill: #162b4d; stroke: #162b4d"/>
     <use xlink:href="#mc2054d08fc" x="761.392607" y="130.920406" style="fill: #162b4d; stroke: #162b4d"/>
     <use xlink:href="#mc2054d08fc" x="832.216477" y="59.236477" style="fill: #162b4d; stroke: #162b4d"/>
    </g>
   </g>
   <g id="line2d_56">
    <path d="M 493.671023 91.820081 
L 560.601419 91.820081 
L 627.531815 91.820081 
L 694.462211 91.820081 
L 761.392607 91.820081 
L 832.216477 91.820081 
" clip-path="url(#pe1b0b04dbc)" style="fill: none; stroke-dasharray: 5.55,2.4; stroke-dashoffset: 0; stroke: #167d7f; stroke-width: 1.5"/>
   </g>
   <g id="patch_7">
    <path d="M 476.74375 282.76 
L 476.74375 48.5925 
" style="fill: none; stroke: #000000; stroke-width: 0.8; stroke-linejoin: miter; stroke-linecap: square"/>
   </g>
   <g id="patch_8">
    <path d="M 476.74375 282.76 
L 849.14375 282.76 
" style="fill: none; stroke: #000000; stroke-width: 0.8; stroke-linejoin: miter; stroke-linecap: square"/>
   </g>
   <g id="text_34">
    <!-- TNR -->
    <g transform="translate(650.62125 42.5925) scale(0.12 -0.12)">
     <use xlink:href="#DejaVuSans-54"/>
     <use xlink:href="#DejaVuSans-4e" transform="translate(61.083984 0)"/>
     <use xlink:href="#DejaVuSans-52" transform="translate(135.888672 0)"/>
    </g>
   </g>
  </g>
  <g id="text_35">
   <!-- Измеренный эффект состава пакета при неизменных рабочих порогах -->
   <g transform="translate(201.61625 16.5225) scale(0.12 -0.12)">
    <defs>
     <path id="DejaVuSans-418" d="M 4159 4666 
L 4159 0 
L 3547 0 
L 3547 3903 
L 1478 0 
L 628 0 
L 628 4666 
L 1241 4666 
L 1241 763 
L 3309 4666 
L 4159 4666 
z
" transform="scale(0.015625)"/>
     <path id="DejaVuSans-44d" d="M 353 666 
Q 847 397 1338 397 
Q 1797 397 2125 664 
Q 2453 931 2513 1613 
L 738 1613 
L 738 2072 
L 2494 2072 
Q 2456 2400 2207 2748 
Q 1959 3097 1338 3097 
Q 856 3097 353 2828 
L 353 3366 
Q 844 3584 1363 3584 
Q 2181 3584 2651 3089 
Q 3122 2594 3122 1747 
Q 3122 903 2664 406 
Q 2206 -91 1403 -91 
Q 813 -91 353 134 
L 353 666 
z
" transform="scale(0.015625)"/>
     <path id="DejaVuSans-444" d="M 947 1747 
Q 947 1013 1173 702 
Q 1400 391 1784 391 
Q 2091 391 2447 916 
L 2447 2578 
Q 2091 3103 1784 3103 
Q 1400 3103 1173 2792 
Q 947 2481 947 1747 
z
M 2447 -1331 
L 2447 447 
Q 2269 153 2064 31 
Q 1859 -91 1600 -91 
Q 1078 -91 714 392 
Q 350 875 350 1734 
Q 350 2594 714 3089 
Q 1078 3584 1600 3584 
Q 1859 3584 2064 3465 
Q 2269 3347 2447 3053 
L 2447 4666 
L 3025 4666 
L 3025 3053 
Q 3203 3347 3408 3465 
Q 3613 3584 3872 3584 
Q 4394 3584 4758 3089 
Q 5122 2594 5122 1734 
Q 5122 875 4758 392 
Q 4394 -91 3872 -91 
Q 3613 -91 3408 31 
Q 3203 153 3025 447 
L 3025 -1331 
L 2447 -1331 
z
M 4525 1747 
Q 4525 2481 4298 2792 
Q 4072 3103 3688 3103 
Q 3381 3103 3025 2578 
L 3025 916 
Q 3381 391 3688 391 
Q 4072 391 4298 702 
Q 4525 1013 4525 1747 
z
" transform="scale(0.015625)"/>
     <path id="DejaVuSans-431" d="M 1991 3584 
Q 2741 3584 3169 3096 
Q 3597 2609 3597 1747 
Q 3597 888 3169 398 
Q 2741 -91 1991 -91 
Q 1238 -91 822 384 
Q 406 859 384 1747 
L 366 2463 
Q 350 2834 350 2963 
Q 350 3463 531 3831 
Q 816 4409 1308 4659 
Q 1800 4909 2625 4916 
Q 3006 4919 3175 4972 
L 3334 4516 
Q 3181 4453 3041 4450 
L 2259 4397 
Q 1866 4369 1628 4231 
Q 1006 3866 947 3388 
L 925 3213 
Q 1331 3584 1991 3584 
z
M 1991 3097 
Q 1528 3097 1259 2736 
Q 991 2375 991 1747 
Q 991 1119 1258 758 
Q 1525 397 1991 397 
Q 2450 397 2719 759 
Q 2988 1122 2988 1747 
Q 2988 2369 2719 2733 
Q 2450 3097 1991 3097 
z
" transform="scale(0.015625)"/>
     <path id="DejaVuSans-447" d="M 2625 0 
L 2625 1472 
L 1553 1472 
Q 1075 1472 756 1769 
Q 469 2038 469 2613 
L 469 3500 
L 1044 3500 
L 1044 2666 
Q 1044 2300 1206 2116 
Q 1372 1931 1697 1931 
L 2625 1931 
L 2625 3500 
L 3200 3500 
L 3200 0 
L 2625 0 
z
" transform="scale(0.015625)"/>
    </defs>
    <use xlink:href="#DejaVuSans-418"/>
    <use xlink:href="#DejaVuSans-437" transform="translate(74.804688 0)"/>
    <use xlink:href="#DejaVuSans-43c" transform="translate(127.978516 0)"/>
    <use xlink:href="#DejaVuSans-435" transform="translate(203.417969 0)"/>
    <use xlink:href="#DejaVuSans-440" transform="translate(264.941406 0)"/>
    <use xlink:href="#DejaVuSans-435" transform="translate(328.417969 0)"/>
    <use xlink:href="#DejaVuSans-43d" transform="translate(389.941406 0)"/>
    <use xlink:href="#DejaVuSans-43d" transform="translate(455.322266 0)"/>
    <use xlink:href="#DejaVuSans-44b" transform="translate(520.703125 0)"/>
    <use xlink:href="#DejaVuSans-439" transform="translate(599.658203 0)"/>
    <use xlink:href="#DejaVuSans-20" transform="translate(664.648438 0)"/>
    <use xlink:href="#DejaVuSans-44d" transform="translate(696.435547 0)"/>
    <use xlink:href="#DejaVuSans-444" transform="translate(751.318359 0)"/>
    <use xlink:href="#DejaVuSans-444" transform="translate(836.816406 0)"/>
    <use xlink:href="#DejaVuSans-435" transform="translate(922.314453 0)"/>
    <use xlink:href="#DejaVuSans-43a" transform="translate(983.837891 0)"/>
    <use xlink:href="#DejaVuSans-442" transform="translate(1044.238281 0)"/>
    <use xlink:href="#DejaVuSans-20" transform="translate(1102.490234 0)"/>
    <use xlink:href="#DejaVuSans-441" transform="translate(1134.277344 0)"/>
    <use xlink:href="#DejaVuSans-43e" transform="translate(1189.257812 0)"/>
    <use xlink:href="#DejaVuSans-441" transform="translate(1250.439453 0)"/>
    <use xlink:href="#DejaVuSans-442" transform="translate(1305.419922 0)"/>
    <use xlink:href="#DejaVuSans-430" transform="translate(1363.671875 0)"/>
    <use xlink:href="#DejaVuSans-432" transform="translate(1424.951172 0)"/>
    <use xlink:href="#DejaVuSans-430" transform="translate(1483.886719 0)"/>
    <use xlink:href="#DejaVuSans-20" transform="translate(1545.166016 0)"/>
    <use xlink:href="#DejaVuSans-43f" transform="translate(1576.953125 0)"/>
    <use xlink:href="#DejaVuSans-430" transform="translate(1642.333984 0)"/>
    <use xlink:href="#DejaVuSans-43a" transform="translate(1703.613281 0)"/>
    <use xlink:href="#DejaVuSans-435" transform="translate(1764.013672 0)"/>
    <use xlink:href="#DejaVuSans-442" transform="translate(1825.537109 0)"/>
    <use xlink:href="#DejaVuSans-430" transform="translate(1883.789062 0)"/>
    <use xlink:href="#DejaVuSans-20" transform="translate(1945.068359 0)"/>
    <use xlink:href="#DejaVuSans-43f" transform="translate(1976.855469 0)"/>
    <use xlink:href="#DejaVuSans-440" transform="translate(2042.236328 0)"/>
    <use xlink:href="#DejaVuSans-438" transform="translate(2105.712891 0)"/>
    <use xlink:href="#DejaVuSans-20" transform="translate(2170.703125 0)"/>
    <use xlink:href="#DejaVuSans-43d" transform="translate(2202.490234 0)"/>
    <use xlink:href="#DejaVuSans-435" transform="translate(2267.871094 0)"/>
    <use xlink:href="#DejaVuSans-438" transform="translate(2329.394531 0)"/>
    <use xlink:href="#DejaVuSans-437" transform="translate(2394.384766 0)"/>
    <use xlink:href="#DejaVuSans-43c" transform="translate(2447.558594 0)"/>
    <use xlink:href="#DejaVuSans-435" transform="translate(2522.998047 0)"/>
    <use xlink:href="#DejaVuSans-43d" transform="translate(2584.521484 0)"/>
    <use xlink:href="#DejaVuSans-43d" transform="translate(2649.902344 0)"/>
    <use xlink:href="#DejaVuSans-44b" transform="translate(2715.283203 0)"/>
    <use xlink:href="#DejaVuSans-445" transform="translate(2794.238281 0)"/>
    <use xlink:href="#DejaVuSans-20" transform="translate(2853.417969 0)"/>
    <use xlink:href="#DejaVuSans-440" transform="translate(2885.205078 0)"/>
    <use xlink:href="#DejaVuSans-430" transform="translate(2948.681641 0)"/>
    <use xlink:href="#DejaVuSans-431" transform="translate(3009.960938 0)"/>
    <use xlink:href="#DejaVuSans-43e" transform="translate(3071.630859 0)"/>
    <use xlink:href="#DejaVuSans-447" transform="translate(3132.8125 0)"/>
    <use xlink:href="#DejaVuSans-438" transform="translate(3191.894531 0)"/>
    <use xlink:href="#DejaVuSans-445" transform="translate(3256.884766 0)"/>
    <use xlink:href="#DejaVuSans-20" transform="translate(3316.064453 0)"/>
    <use xlink:href="#DejaVuSans-43f" transform="translate(3347.851562 0)"/>
    <use xlink:href="#DejaVuSans-43e" transform="translate(3413.232422 0)"/>
    <use xlink:href="#DejaVuSans-440" transform="translate(3474.414062 0)"/>
    <use xlink:href="#DejaVuSans-43e" transform="translate(3537.890625 0)"/>
    <use xlink:href="#DejaVuSans-433" transform="translate(3599.072266 0)"/>
    <use xlink:href="#DejaVuSans-430" transform="translate(3651.611328 0)"/>
    <use xlink:href="#DejaVuSans-445" transform="translate(3712.890625 0)"/>
   </g>
  </g>
 </g>
 <defs>
  <clipPath id="p2df70d11b1">
   <rect x="50.14375" y="48.5925" width="372.4" height="234.1675"/>
  </clipPath>
  <clipPath id="pe1b0b04dbc">
   <rect x="476.74375" y="48.5925" width="372.4" height="234.1675"/>
  </clipPath>
 </defs>
</svg>
